<svg xmlns="http://www.w3.org/2000/svg" width="21.174" height="21.056" viewBox="0 0 21.174 21.056">
  <path id="패스_73" data-name="패스 73" d="M87.813,282.908l-9.667,9.667a.419.419,0,0,0-.123.3v9.492a.42.42,0,0,0,.42.42h7a.42.42,0,0,0,.42-.42v-6.145a2.329,2.329,0,0,1,2.049-2.358A2.25,2.25,0,0,1,90.36,296.1v6.262a.42.42,0,0,0,.42.42h7a.42.42,0,0,0,.42-.42v-9.492a.42.42,0,0,0-.123-.3l-9.667-9.667A.421.421,0,0,0,87.813,282.908Z" transform="translate(-77.523 -282.229)" fill="none" stroke="#777" stroke-miterlimit="10" stroke-width="1"/>
</svg>
