<svg xmlns="http://www.w3.org/2000/svg" width="22.174" height="22.086" viewBox="0 0 22.174 22.086">
  <path id="패스_74" data-name="패스 74" d="M87.813,282.908l-9.667,9.667a.419.419,0,0,0-.123.3v9.492a.42.42,0,0,0,.42.42h7a.42.42,0,0,0,.42-.42v-6.145a2.329,2.329,0,0,1,2.049-2.358A2.25,2.25,0,0,1,90.36,296.1v6.262a.42.42,0,0,0,.42.42h7a.42.42,0,0,0,.42-.42v-9.492a.42.42,0,0,0-.123-.3l-9.667-9.667A.421.421,0,0,0,87.813,282.908Z" transform="translate(-77.023 -281.699)" fill="none" stroke="#8293ff" stroke-miterlimit="10" stroke-width="2"/>
</svg>
