<svg xmlns="http://www.w3.org/2000/svg" width="15.974" height="15.974" viewBox="0 0 15.974 15.974">
  <g id="심볼_4_1" data-name="심볼 4 – 1" transform="translate(-274.5 -410.267)">
    <path id="빼기_4" data-name="빼기 4" d="M13.547,14.974a1.429,1.429,0,0,1-1.427-1.427v-.3a.96.96,0,0,0-.958-.958H3.813a.96.96,0,0,0-.958.958v.3a1.427,1.427,0,1,1-2.855,0V3.488A3.491,3.491,0,0,1,3.488,0h8a3.492,3.492,0,0,1,3.488,3.488V13.547A1.429,1.429,0,0,1,13.547,14.974ZM10.4,8.311a.848.848,0,1,0,.848.848A.849.849,0,0,0,10.4,8.311Zm-5.832,0a.848.848,0,1,0,.847.848A.849.849,0,0,0,4.571,8.311ZM4.45,2.274A1.668,1.668,0,0,0,2.784,3.94V5.178A1.668,1.668,0,0,0,4.45,6.844h6.075a1.668,1.668,0,0,0,1.666-1.666V3.94a1.668,1.668,0,0,0-1.666-1.666Z" transform="translate(275 410.767)" fill="#fff" stroke="rgba(0,0,0,0)" stroke-width="1"/>
  </g>
</svg>
