<svg xmlns="http://www.w3.org/2000/svg" width="15.001" height="18.162" viewBox="0 0 15.001 18.162">
  <g id="그룹_156" data-name="그룹 156" transform="translate(-709.39 -174.21)">
    <path id="패스_61" data-name="패스 61" d="M723.823,188.052a2.293,2.293,0,0,0-.531-.89c-.471-.507-1.566-2.028-1.566-5.208a4.308,4.308,0,0,0-2.774-4.01,4.9,4.9,0,0,0-4.122,0,4.308,4.308,0,0,0-2.774,4.01c0,3.18-1.1,4.7-1.566,5.208a2.282,2.282,0,0,0-.531.89c-.156.519-.12,1.141.947,1.141h11.97C723.943,189.193,723.978,188.571,723.823,188.052Z" fill="none" stroke="#707070" stroke-miterlimit="10" stroke-width="1"/>
    <circle id="타원_161" data-name="타원 161" cx="1.39" cy="1.39" r="1.39" transform="translate(715.501 174.71)" fill="none" stroke="#707070" stroke-miterlimit="10" stroke-width="1"/>
    <path id="패스_62" data-name="패스 62" d="M718.568,190.2a1.677,1.677,0,0,1-3.354,0" fill="none" stroke="#707070" stroke-miterlimit="10" stroke-width="1"/>
  </g>
</svg>
