<svg xmlns="http://www.w3.org/2000/svg" width="8.745" height="8.745" viewBox="0 0 8.745 8.745">
  <path id="빼기_8" data-name="빼기 8" d="M7.007,7.745a.739.739,0,0,1-.738-.738V6.851a.5.5,0,0,0-.5-.5h-3.8a.5.5,0,0,0-.5.5v.156A.738.738,0,0,1,0,7.007V1.8A1.806,1.806,0,0,1,1.8,0H5.941a1.806,1.806,0,0,1,1.8,1.8v5.2A.739.739,0,0,1,7.007,7.745ZM5.381,4.3a.439.439,0,1,0,.438.439A.44.44,0,0,0,5.381,4.3Zm-3.017,0a.439.439,0,1,0,.438.439A.44.44,0,0,0,2.364,4.3Zm.257-3.122a1.182,1.182,0,0,0,0,2.363h2.5a1.182,1.182,0,0,0,0-2.363Z" transform="translate(0.5 0.5)" fill="#ff8282" stroke="rgba(0,0,0,0)" stroke-width="1"/>
</svg>
