<svg xmlns="http://www.w3.org/2000/svg" width="15.464" height="19" viewBox="0 0 15.464 19">
  <g id="그룹_142" data-name="그룹 142" transform="translate(-213 -409)">
    <g id="심볼_3_1" data-name="심볼 3 – 1">
      <path id="패스_5" data-name="패스 5" d="M134.636,845.951l-3.882,2.025a.578.578,0,0,1-.84-.605l.741-4.289a.572.572,0,0,0-.167-.508l-3.14-3.038a.573.573,0,0,1,.321-.979l4.34-.626a.577.577,0,0,0,.435-.314l1.941-3.9a.581.581,0,0,1,1.038,0l1.941,3.9a.577.577,0,0,0,.435.314l4.34.626a.573.573,0,0,1,.321.979l-3.14,3.038a.569.569,0,0,0-.167.508l.741,4.289a.578.578,0,0,1-.84.605l-3.882-2.025A.582.582,0,0,0,134.636,845.951Z" transform="translate(85.826 -423.321)" fill="#FF8282"/>
    </g>
    <rect id="사각형_226" data-name="사각형 226" width="8" height="19" transform="translate(217 409)" fill="none"/>
  </g>
</svg>
