<svg xmlns="http://www.w3.org/2000/svg" width="15" height="15" viewBox="0 0 15 15">
  <g id="심볼_1_1" data-name="심볼 1 – 1" transform="translate(-91 -410.5)">
    <path id="합치기_11" data-name="합치기 11" d="M2962-2a1,1,0,0,1-1-1V-7a1,1,0,0,1,1-1h4a1,1,0,0,1,1,1v4a1,1,0,0,1-1,1Zm-9,0a1,1,0,0,1-1-1V-7a1,1,0,0,1,1-1h4a1,1,0,0,1,1,1v4a1,1,0,0,1-1,1Zm9-9a1,1,0,0,1-1-1v-4a1,1,0,0,1,1-1h4a1,1,0,0,1,1,1v4a1,1,0,0,1-1,1Zm-9,0a1,1,0,0,1-1-1v-4a1,1,0,0,1,1-1h4a1,1,0,0,1,1,1v4a1,1,0,0,1-1,1Z" transform="translate(-2861 427.5)" fill="rgba(255,255,255,0.5)"/>
  </g>
</svg>
