<svg xmlns="http://www.w3.org/2000/svg" width="11.546" height="10.242" viewBox="0 0 11.546 10.242">
  <path id="패스_48" data-name="패스 48" d="M182.235,769.642a2.846,2.846,0,0,0-2.422,1.353,2.845,2.845,0,0,0-2.668-1.342,2.877,2.877,0,0,0-2.6,2.729,3.206,3.206,0,0,0,.833,2.128c.41.54,3.378,3.386,4.272,4.262a.236.236,0,0,0,.332,0c.9-.889,3.776-3.691,4.191-4.183a3.366,3.366,0,0,0,.916-2.094A2.851,2.851,0,0,0,182.235,769.642Z" transform="translate(-174.04 -769.139)" fill="#fff" stroke="#fff" stroke-width="1"/>
</svg>
